<svg width="23" height="22" viewBox="0 0 23 22" fill="none" xmlns="http://www.w3.org/2000/svg">
<path d="M22.2534 5.34824C21.9921 6.14119 21.7308 6.93414 21.474 7.72709C20.7892 9.84913 20.1134 11.9757 19.433 14.0977C19.2708 14.6023 19.0861 14.742 18.559 14.742C15.2655 14.742 11.9721 14.742 8.67866 14.7375C8.49393 14.7375 8.41284 14.7916 8.35878 14.9673C8.19658 15.4493 8.01637 15.9269 7.83165 16.4495C7.93978 16.4495 8.02538 16.4495 8.11098 16.4495C11.5756 16.4495 15.0448 16.4495 18.5094 16.4495C18.5995 16.4495 18.6896 16.4495 18.7798 16.4585C19.0906 16.4991 19.3069 16.7424 19.2979 17.0307C19.2889 17.3236 19.0636 17.5624 18.7572 17.5849C18.5545 17.5984 18.3472 17.5894 18.0994 17.5894C18.5365 18.1436 18.7077 18.7293 18.568 19.3826C18.4599 19.8962 18.185 20.3152 17.7525 20.617C16.9731 21.1622 15.9684 21.1442 15.1754 20.4413C14.405 19.761 14.3419 18.7608 15.0132 17.6074C13.5535 17.6074 12.0983 17.6074 10.616 17.6074C11.0755 18.2247 11.2467 18.8825 10.9944 19.6168C10.8458 20.0494 10.5754 20.3963 10.2015 20.6486C9.39952 21.1892 8.35427 21.0946 7.64692 20.4098C7.0432 19.8286 6.67826 18.7158 7.52978 17.5894C7.37209 17.5894 7.24144 17.5894 7.10628 17.5894C6.59717 17.5804 6.34936 17.2335 6.51606 16.7514C6.72782 16.1522 6.94408 15.553 7.16034 14.9583C7.18287 14.8952 7.20088 14.8321 7.22792 14.742C7.11979 14.742 7.02968 14.742 6.94408 14.742C6.56112 14.733 6.29981 14.5167 6.23223 14.1473C5.99344 12.8632 5.75916 11.5792 5.52488 10.2952C5.11489 8.06049 4.70039 5.82581 4.29491 3.58663C4.27238 3.46048 4.21831 3.40191 4.10117 3.35686C3.22712 3.01895 2.35308 2.67204 1.47903 2.32512C1.1141 2.18095 0.938385 1.85656 1.01948 1.52316C1.12311 1.10416 1.5331 0.892405 1.96111 1.0546C2.51077 1.26185 3.05592 1.48261 3.60107 1.69887C4.07864 1.88359 4.55172 2.07732 5.02929 2.25754C5.33115 2.37017 5.49785 2.58193 5.55642 2.8928C5.96191 5.10045 6.36739 7.31259 6.77287 9.52024C6.99814 10.7502 7.22342 11.9802 7.44418 13.2102C7.46671 13.3408 7.52077 13.3859 7.66044 13.3859C11.1251 13.3814 14.5942 13.3814 18.0589 13.3859C18.1715 13.3859 18.2436 13.3678 18.2842 13.2372C19.0636 10.7953 19.8475 8.35785 20.627 5.91592C20.6315 5.90241 20.627 5.88889 20.627 5.84834C20.4738 5.83933 20.3206 5.82581 20.1674 5.8168C17.748 5.71318 15.3286 5.61406 12.9092 5.51044C11.4089 5.44736 9.90863 5.37978 8.40834 5.3122C7.98032 5.29418 7.69648 5.00133 7.71 4.60035C7.72351 4.21288 8.02988 3.93805 8.44888 3.95157C9.12469 3.9741 9.80501 4.01014 10.4808 4.03717C11.927 4.10025 13.3688 4.16783 14.815 4.2264C17.0677 4.32552 19.3204 4.42013 21.5731 4.51925C21.9335 4.53276 22.1318 4.74452 22.2534 5.0599C22.2534 5.15451 22.2534 5.24912 22.2534 5.34824ZM16.5811 18.0444C16.081 18.0399 15.6665 18.4454 15.662 18.941C15.6575 19.4366 16.0765 19.8511 16.5721 19.8511C17.0632 19.8511 17.4732 19.4501 17.4777 18.959C17.4867 18.4634 17.0812 18.049 16.5811 18.0444ZM9.97171 18.9455C9.97171 18.4409 9.56622 18.0444 9.05711 18.0444C8.56151 18.049 8.16504 18.4454 8.16054 18.941C8.15603 19.4411 8.56152 19.8511 9.06612 19.8556C9.56622 19.8556 9.97171 19.4501 9.97171 18.9455Z" fill="black" stroke="black" stroke-width="0.5" stroke-miterlimit="10"/>
</svg>
