<svg width="12" height="11" viewBox="0 0 12 11" fill="none" xmlns="http://www.w3.org/2000/svg">
<path d="M11.5385 0.923077H5.07692C5.07692 0.414 4.66292 0 4.15385 0H3.23077C2.72169 0 2.30769 0.414 2.30769 0.923077H0.461538C0.206769 0.923077 0 1.12938 0 1.38462C0 1.63985 0.206769 1.84615 0.461538 1.84615H2.30769C2.30769 2.35523 2.72169 2.76923 3.23077 2.76923H4.15385C4.66292 2.76923 5.07692 2.35523 5.07692 1.84615H11.5385C11.7932 1.84615 12 1.63985 12 1.38462C12 1.12938 11.7932 0.923077 11.5385 0.923077ZM3.23077 1.84615V0.923077H4.15385L4.15431 1.38277C4.15431 1.38369 4.15385 1.38415 4.15385 1.38462C4.15385 1.38508 4.15431 1.38554 4.15431 1.38646V1.84615H3.23077Z" fill="black"/>
<path d="M11.5385 4.61546H8.76923C8.76923 4.10638 8.35523 3.69238 7.84615 3.69238H6.92308C6.414 3.69238 6 4.10638 6 4.61546H0.461538C0.206769 4.61546 0 4.82177 0 5.077C0 5.33223 0.206769 5.53854 0.461538 5.53854H6C6 6.04761 6.414 6.46161 6.92308 6.46161H7.84615C8.35523 6.46161 8.76923 6.04761 8.76923 5.53854H11.5385C11.7932 5.53854 12 5.33223 12 5.077C12 4.82177 11.7932 4.61546 11.5385 4.61546ZM6.92308 5.53854V4.61546H7.84615L7.84662 5.07515C7.84662 5.07608 7.84615 5.07654 7.84615 5.077C7.84615 5.07746 7.84662 5.07792 7.84662 5.07884V5.53854H6.92308Z" fill="black"/>
<path d="M11.5385 8.30784H5.07692C5.07692 7.79877 4.66292 7.38477 4.15385 7.38477H3.23077C2.72169 7.38477 2.30769 7.79877 2.30769 8.30784H0.461538C0.206769 8.30784 0 8.51415 0 8.76938C0 9.02461 0.206769 9.23092 0.461538 9.23092H2.30769C2.30769 9.74 2.72169 10.154 3.23077 10.154H4.15385C4.66292 10.154 5.07692 9.74 5.07692 9.23092H11.5385C11.7932 9.23092 12 9.02461 12 8.76938C12 8.51415 11.7932 8.30784 11.5385 8.30784ZM3.23077 9.23092V8.30784H4.15385L4.15431 8.76753C4.15431 8.76846 4.15385 8.76892 4.15385 8.76938C4.15385 8.76984 4.15431 8.7703 4.15431 8.77123V9.23092H3.23077Z" fill="black"/>
</svg>
