<svg width="26" height="25" viewBox="0 0 26 25" fill="none" xmlns="http://www.w3.org/2000/svg">
<path d="M25.7573 7.37887C25.7433 6.32917 25.5468 5.28991 25.1765 4.30757C24.8555 3.47898 24.3651 2.72646 23.7368 2.09811C23.1084 1.46976 22.3559 0.979392 21.5273 0.658333C20.5576 0.294319 19.5331 0.0974904 18.4976 0.0762281C17.1643 0.0166316 16.7416 0 13.357 0C9.97252 0 9.53872 9.29361e-08 8.21512 0.0762281C7.18003 0.0976467 6.15606 0.294473 5.18679 0.658333C4.35807 0.979168 3.60544 1.46946 2.97706 2.09784C2.34868 2.72622 1.85839 3.47885 1.53755 4.30757C1.17281 5.27655 0.976407 6.30074 0.956833 7.3359C0.897237 8.67059 0.879219 9.0933 0.879219 12.4778C0.879219 15.8623 0.879219 16.2948 0.956833 17.6197C0.977622 18.6565 1.17304 19.6793 1.53755 20.6509C1.85893 21.4793 2.34958 22.2316 2.97817 22.8598C3.60676 23.4879 4.35946 23.978 5.18818 24.2987C6.1548 24.6773 7.17894 24.8883 8.21651 24.9224C9.55119 24.982 9.97391 25 13.3584 25C16.743 25 17.1768 25 18.5004 24.9224C19.5359 24.902 20.5604 24.7056 21.5301 24.3417C22.3584 24.0202 23.1108 23.5297 23.7391 22.9014C24.3674 22.2731 24.8579 21.5208 25.1793 20.6924C25.5438 19.7223 25.7392 18.6994 25.76 17.6613C25.8196 16.328 25.8376 15.9053 25.8376 12.5194C25.8349 9.13488 25.8349 8.70523 25.7573 7.37887ZM13.3487 18.8782C9.80898 18.8782 6.94142 16.0106 6.94142 12.4709C6.94142 8.93115 9.80898 6.06359 13.3487 6.06359C15.0481 6.06359 16.6778 6.73864 17.8794 7.94025C19.081 9.14185 19.756 10.7716 19.756 12.4709C19.756 14.1702 19.081 15.7999 17.8794 17.0015C16.6778 18.2031 15.0481 18.8782 13.3487 18.8782ZM20.0111 7.32066C19.8148 7.32084 19.6204 7.28232 19.4391 7.2073C19.2577 7.13228 19.093 7.02223 18.9542 6.88346C18.8154 6.74469 18.7054 6.57991 18.6303 6.39856C18.5553 6.21721 18.5168 6.02284 18.517 5.82659C18.517 5.63048 18.5556 5.43628 18.6307 5.2551C18.7057 5.07391 18.8157 4.90929 18.9544 4.77061C19.0931 4.63194 19.2577 4.52194 19.4389 4.44689C19.6201 4.37184 19.8143 4.33321 20.0104 4.33321C20.2065 4.33321 20.4007 4.37184 20.5819 4.44689C20.763 4.52194 20.9277 4.63194 21.0663 4.77061C21.205 4.90929 21.315 5.07391 21.3901 5.2551C21.4651 5.43628 21.5037 5.63048 21.5037 5.82659C21.5037 6.65262 20.8357 7.32066 20.0111 7.32066Z" fill="white"/>
<path d="M13.3518 16.6332C15.6504 16.6332 17.5139 14.7698 17.5139 12.4711C17.5139 10.1725 15.6504 8.30908 13.3518 8.30908C11.0532 8.30908 9.18977 10.1725 9.18977 12.4711C9.18977 14.7698 11.0532 16.6332 13.3518 16.6332Z" fill="white"/>
</svg>
