<svg width="101" height="36" viewBox="0 0 101 36" fill="none" xmlns="http://www.w3.org/2000/svg">
<path d="M24.3309 26.7788H2.42016C2.0753 26.7788 1.75508 26.7166 1.45948 26.5921C1.16389 26.4676 0.90525 26.2995 0.683556 26.0879C0.474178 25.8638 0.307908 25.6024 0.184745 25.3036C0.0615816 25.0048 0 24.6811 0 24.3325V0H4.80337V21.9235H24.3309V26.7788Z" fill="black"/>
<path d="M49.0498 19.9627C49.0498 20.7969 48.9451 21.55 48.7357 22.2223C48.5263 22.8821 48.2492 23.4673 47.9043 23.9777C47.5595 24.4757 47.1592 24.9052 46.7035 25.2662C46.2478 25.6148 45.7675 25.9011 45.2625 26.1252C44.7698 26.3493 44.2649 26.5174 43.7476 26.6294C43.2426 26.729 42.7623 26.7788 42.3066 26.7788H33.642C32.977 26.7788 32.2503 26.6606 31.462 26.424C30.6738 26.1875 29.941 25.8015 29.2636 25.2662C28.5985 24.7184 28.0381 24.015 27.5824 23.156C27.139 22.2846 26.9173 21.2201 26.9173 19.9627V13.3894C26.9173 12.1445 27.139 11.0925 27.5824 10.2335C28.0381 9.36201 28.5985 8.65861 29.2636 8.12329C29.941 7.57551 30.6738 7.18335 31.462 6.94681C32.2503 6.71027 32.977 6.592 33.642 6.592H42.3066C43.5382 6.592 44.5851 6.81609 45.4472 7.26427C46.3094 7.71245 47.0052 8.2789 47.5348 8.96362C48.0644 9.6359 48.4463 10.3704 48.6803 11.1672C48.9266 11.9639 49.0498 12.7047 49.0498 13.3894V19.9627ZM44.2464 13.4268C44.2464 12.7545 44.0801 12.2565 43.7476 11.9328C43.415 11.6091 42.9347 11.4473 42.3066 11.4473H33.679C33.0385 11.4473 32.552 11.6154 32.2195 11.9515C31.887 12.2752 31.7207 12.7545 31.7207 13.3894V19.9627C31.7207 20.5977 31.887 21.0832 32.2195 21.4193C32.552 21.7555 33.0385 21.9235 33.679 21.9235H42.3066C42.9593 21.9235 43.4458 21.7555 43.766 21.4193C44.0863 21.0832 44.2464 20.5977 44.2464 19.9627V13.4268Z" fill="black"/>
<path d="M74.8771 28.7209C74.8771 29.5551 74.7724 30.302 74.563 30.9619C74.3536 31.6341 74.0765 32.2192 73.7317 32.7172C73.3868 33.2277 72.9865 33.6572 72.5308 34.0058C72.0751 34.3668 71.5948 34.6593 71.0898 34.8834C70.5972 35.1075 70.0922 35.2694 69.5749 35.369C69.0699 35.481 68.5896 35.537 68.1339 35.537H59.4694V30.6817H68.1339C68.7867 30.6817 69.2732 30.5137 69.5934 30.1775C69.9136 29.8414 70.0737 29.3559 70.0737 28.7209V13.3894C70.0737 12.7545 69.9136 12.2752 69.5934 11.9515C69.2732 11.6154 68.7867 11.4473 68.1339 11.4473H59.4694C58.8782 11.4473 58.4102 11.634 58.0653 12.0075C57.7204 12.3686 57.548 12.8292 57.548 13.3894V19.9627C57.548 20.5977 57.7143 21.0832 58.0468 21.4193C58.3794 21.7555 58.8659 21.9235 59.5063 21.9235H68.1339V26.7788H59.4694C59.0137 26.7788 58.5333 26.729 58.0284 26.6294C57.5234 26.5174 57.0184 26.3493 56.5134 26.1252C56.0208 25.9011 55.5466 25.6148 55.0909 25.2662C54.6352 24.9052 54.2349 24.4757 53.8901 23.9777C53.5452 23.4673 53.2681 22.8821 53.0587 22.2223C52.8493 21.55 52.7446 20.7969 52.7446 19.9627V13.3894C52.7446 12.9288 52.7939 12.4433 52.8924 11.9328C53.0033 11.4224 53.1696 10.9182 53.3913 10.4202C53.6129 9.90979 53.8962 9.42426 54.2411 8.96362C54.5983 8.50299 55.0232 8.09839 55.5158 7.7498C56.0208 7.40122 56.5997 7.1211 57.2524 6.90946C57.9052 6.69782 58.6442 6.592 59.4694 6.592H68.1339C68.5896 6.592 69.0699 6.64802 69.5749 6.76007C70.0922 6.85966 70.5972 7.02151 71.0898 7.2456C71.5948 7.46969 72.0751 7.76225 72.5308 8.12329C72.9865 8.47187 73.3868 8.90138 73.7317 9.41181C74.0765 9.90979 74.3536 10.4887 74.563 11.1485C74.7724 11.8083 74.8771 12.5553 74.8771 13.3894V28.7209Z" fill="black"/>
<path d="M101 19.9627C101 20.7969 100.895 21.55 100.686 22.2223C100.477 22.8821 100.199 23.4673 99.8546 23.9777C99.5097 24.4757 99.1094 24.9052 98.6537 25.2662C98.198 25.6148 97.7177 25.9011 97.2127 26.1252C96.7201 26.3493 96.2151 26.5174 95.6978 26.6294C95.1929 26.729 94.7125 26.7788 94.2568 26.7788H85.5923C84.9272 26.7788 84.2005 26.6606 83.4123 26.424C82.624 26.1875 81.8912 25.8015 81.2138 25.2662C80.5487 24.7184 79.9883 24.015 79.5326 23.156C79.0893 22.2846 78.8676 21.2201 78.8676 19.9627V13.3894C78.8676 12.1445 79.0893 11.0925 79.5326 10.2335C79.9883 9.36201 80.5487 8.65861 81.2138 8.12329C81.8912 7.57551 82.624 7.18335 83.4123 6.94681C84.2005 6.71027 84.9272 6.592 85.5923 6.592H94.2568C95.4884 6.592 96.5353 6.81609 97.3975 7.26427C98.2596 7.71245 98.9555 8.2789 99.4851 8.96362C100.015 9.6359 100.396 10.3704 100.631 11.1672C100.877 11.9639 101 12.7047 101 13.3894V19.9627ZM96.1966 13.4268C96.1966 12.7545 96.0304 12.2565 95.6978 11.9328C95.3653 11.6091 94.8849 11.4473 94.2568 11.4473H85.6292C84.9888 11.4473 84.5023 11.6154 84.1697 11.9515C83.8372 12.2752 83.6709 12.7545 83.6709 13.3894V19.9627C83.6709 20.5977 83.8372 21.0832 84.1697 21.4193C84.5023 21.7555 84.9888 21.9235 85.6292 21.9235H94.2568C94.9096 21.9235 95.3961 21.7555 95.7163 21.4193C96.0365 21.0832 96.1966 20.5977 96.1966 19.9627V13.4268Z" fill="black"/>
</svg>
