<svg width="122" height="43" viewBox="0 0 122 43" fill="none" xmlns="http://www.w3.org/2000/svg">
<path d="M29.3898 32.3467H2.92336C2.5068 32.3467 2.11999 32.2715 1.76294 32.1211C1.40589 31.9708 1.09347 31.7677 0.825681 31.5121C0.57277 31.2414 0.371929 30.9256 0.223157 30.5647C0.0743857 30.2038 0 29.8128 0 29.3917V0H5.80209V26.4819H29.3898V32.3467Z" fill="#F5F5F5"/>
<path d="M59.2482 24.1134C59.2482 25.121 59.1218 26.0308 58.8689 26.8428C58.6159 27.6398 58.2812 28.3466 57.8646 28.9632C57.4481 29.5647 56.9646 30.0835 56.4141 30.5196C55.8637 30.9407 55.2835 31.2865 54.6735 31.5572C54.0784 31.8279 53.4684 32.0309 52.8436 32.1662C52.2336 32.2866 51.6534 32.3467 51.103 32.3467H40.6369C39.8335 32.3467 38.9558 32.2038 38.0037 31.9181C37.0515 31.6324 36.1663 31.1662 35.3481 30.5196C34.5447 29.8579 33.8678 29.0083 33.3174 27.9706C32.7818 26.918 32.514 25.6322 32.514 24.1134V16.1734C32.514 14.6696 32.7818 13.3988 33.3174 12.3612C33.8678 11.3086 34.5447 10.4589 35.3481 9.81228C36.1663 9.15061 37.0515 8.67692 38.0037 8.3912C38.9558 8.10547 39.8335 7.96261 40.6369 7.96261H51.103C52.5907 7.96261 53.8553 8.2333 54.8967 8.77466C55.9381 9.31603 56.7786 10.0003 57.4183 10.8273C58.058 11.6394 58.5192 12.5266 58.8019 13.4891C59.0994 14.4515 59.2482 15.3463 59.2482 16.1734V24.1134ZM53.4461 16.2185C53.4461 15.4064 53.2453 14.8049 52.8436 14.4139C52.4419 14.0229 51.8617 13.8274 51.103 13.8274H40.6815C39.9079 13.8274 39.3203 14.0304 38.9186 14.4365C38.5169 14.8275 38.3161 15.4064 38.3161 16.1734V24.1134C38.3161 24.8803 38.5169 25.4668 38.9186 25.8729C39.3203 26.2789 39.9079 26.4819 40.6815 26.4819H51.103C51.8915 26.4819 52.4791 26.2789 52.8659 25.8729C53.2527 25.4668 53.4461 24.8803 53.4461 24.1134V16.2185Z" fill="#F5F5F5"/>
<path d="M90.4456 34.6926C90.4456 35.7002 90.3191 36.6025 90.0662 37.3995C89.8133 38.2115 89.4786 38.9183 89.062 39.5198C88.6454 40.1364 88.1619 40.6552 87.6115 41.0763C87.061 41.5124 86.4808 41.8657 85.8709 42.1364C85.2758 42.4071 84.6658 42.6026 84.041 42.7229C83.431 42.8583 82.8508 42.9259 82.3003 42.9259H71.8343V37.0611H82.3003C83.0888 37.0611 83.6765 36.8581 84.0633 36.4521C84.4501 36.046 84.6435 35.4596 84.6435 34.6926V16.1734C84.6435 15.4064 84.4501 14.8275 84.0633 14.4365C83.6765 14.0304 83.0888 13.8274 82.3003 13.8274H71.8343C71.1202 13.8274 70.5548 14.053 70.1383 14.5041C69.7217 14.9402 69.5134 15.4966 69.5134 16.1734V24.1134C69.5134 24.8803 69.7143 25.4668 70.116 25.8729C70.5177 26.2789 71.1053 26.4819 71.8789 26.4819H82.3003V32.3467H71.8343C71.2838 32.3467 70.7036 32.2866 70.0937 32.1662C69.4837 32.0309 68.8737 31.8279 68.2638 31.5572C67.6687 31.2865 67.0959 30.9407 66.5455 30.5196C65.995 30.0835 65.5115 29.5647 65.0949 28.9632C64.6784 28.3466 64.3436 27.6398 64.0907 26.8428C63.8378 26.0308 63.7114 25.121 63.7114 24.1134V16.1734C63.7114 15.6169 63.7709 15.0305 63.8899 14.4139C64.0238 13.7974 64.2246 13.1883 64.4924 12.5868C64.7602 11.9702 65.1024 11.3838 65.5189 10.8273C65.9504 10.2709 66.4636 9.78221 67.0587 9.36115C67.6687 8.94008 68.3679 8.60173 69.1564 8.34608C69.9449 8.09044 70.8375 7.96261 71.8343 7.96261H82.3003C82.8508 7.96261 83.431 8.03028 84.041 8.16563C84.6658 8.28593 85.2758 8.48142 85.8709 8.75211C86.4808 9.02279 87.061 9.37618 87.6115 9.81228C88.1619 10.2333 88.6454 10.7522 89.062 11.3687C89.4786 11.9702 89.8133 12.6695 90.0662 13.4665C90.3191 14.2635 90.4456 15.1658 90.4456 16.1734V34.6926Z" fill="#F5F5F5"/>
<path d="M122 24.1134C122 25.121 121.874 26.0308 121.621 26.8428C121.368 27.6398 121.033 28.3466 120.616 28.9632C120.2 29.5647 119.716 30.0835 119.166 30.5196C118.615 30.9407 118.035 31.2865 117.425 31.5572C116.83 31.8279 116.22 32.0309 115.595 32.1662C114.985 32.2866 114.405 32.3467 113.855 32.3467H103.389C102.585 32.3467 101.708 32.2038 100.755 31.9181C99.8033 31.6324 98.9181 31.1662 98.0999 30.5196C97.2965 29.8579 96.6196 29.0083 96.0691 27.9706C95.5336 26.918 95.2658 25.6322 95.2658 24.1134V16.1734C95.2658 14.6696 95.5336 13.3988 96.0691 12.3612C96.6196 11.3086 97.2965 10.4589 98.0999 9.81228C98.9181 9.15061 99.8033 8.67692 100.755 8.3912C101.708 8.10547 102.585 7.96261 103.389 7.96261H113.855C115.342 7.96261 116.607 8.2333 117.648 8.77466C118.69 9.31603 119.53 10.0003 120.17 10.8273C120.81 11.6394 121.271 12.5266 121.554 13.4891C121.851 14.4515 122 15.3463 122 16.1734V24.1134ZM116.198 16.2185C116.198 15.4064 115.997 14.8049 115.595 14.4139C115.194 14.0229 114.614 13.8274 113.855 13.8274H103.433C102.66 13.8274 102.072 14.0304 101.67 14.4365C101.269 14.8275 101.068 15.4064 101.068 16.1734V24.1134C101.068 24.8803 101.269 25.4668 101.67 25.8729C102.072 26.2789 102.66 26.4819 103.433 26.4819H113.855C114.643 26.4819 115.231 26.2789 115.618 25.8729C116.005 25.4668 116.198 24.8803 116.198 24.1134V16.2185Z" fill="#F5F5F5"/>
</svg>
