<svg width="60" height="60" viewBox="0 0 60 60" fill="none" xmlns="http://www.w3.org/2000/svg">
<circle cx="30" cy="30" r="30" fill="#111010"/>
<path d="M26.5945 20.3164C26.2291 20.1077 25.8154 19.9986 25.3946 20C24.9739 20.0014 24.5609 20.1133 24.1969 20.3245C23.833 20.5357 23.5309 20.8387 23.3208 21.2033C23.1108 21.5679 23.0001 21.9812 23 22.402V37.484C23.0001 37.9048 23.1108 38.3181 23.3208 38.6827C23.5309 39.0473 23.833 39.3503 24.1969 39.5615C24.5609 39.7726 24.9739 39.8845 25.3946 39.8859C25.8154 39.8874 26.2291 39.7783 26.5945 39.5696L39.7904 32.0274C40.1579 31.8171 40.4633 31.5135 40.6757 31.1473C40.8881 30.781 41 30.3652 41 29.9418C41 29.5184 40.8881 29.1025 40.6757 28.7363C40.4633 28.37 40.1579 28.0664 39.7904 27.8562L26.5945 20.3164Z" fill="white"/>
</svg>
