<svg width="19" height="19" viewBox="0 0 19 19" fill="none" xmlns="http://www.w3.org/2000/svg">
<path d="M7.24626 14.4849C8.85553 14.485 10.4188 13.948 11.6884 12.9592L16.4782 17.749C16.836 18.0945 17.4061 18.0846 17.7517 17.7268C18.0888 17.3778 18.0888 16.8244 17.7517 16.4754L12.9619 11.6856C15.4157 8.52694 14.8443 3.97712 11.6856 1.52332C8.5269 -0.930479 3.97712 -0.359074 1.52332 2.79963C-0.930479 5.95833 -0.359075 10.5081 2.79963 12.9619C4.07129 13.9498 5.63594 14.4857 7.24626 14.4849ZM3.39772 3.39495C5.52323 1.26939 8.96937 1.26935 11.0949 3.39487C13.2205 5.52038 13.2205 8.96652 11.095 11.0921C8.96949 13.2176 5.52335 13.2177 3.39779 11.0922C3.39775 11.0921 3.39775 11.0921 3.39772 11.0921C1.2722 8.98205 1.25968 5.54847 3.36971 3.42296C3.37903 3.41359 3.38835 3.40427 3.39772 3.39495Z" fill="black"/>
</svg>
