<svg width="26" height="21" viewBox="0 0 26 21" fill="none" xmlns="http://www.w3.org/2000/svg">
<path d="M25.0913 3.15583C24.4122 4.16758 23.5529 5.06846 22.555 5.78916C22.5688 5.99705 22.5688 6.21881 22.5688 6.44056C22.5688 13.1625 17.4546 20.91 8.11324 20.91C5.24429 20.91 2.56938 20.0646 0.310265 18.6232C0.712194 18.6648 1.11412 18.6925 1.52991 18.6925C3.91377 18.6925 6.10359 17.8748 7.83604 16.5165C6.77626 16.4946 5.74978 16.1422 4.89999 15.5086C4.05019 14.875 3.41952 13.9918 3.09605 12.9823C3.40096 13.0377 3.71973 13.0793 4.05237 13.0793C4.50973 13.0793 4.9671 13.01 5.38289 12.8991C4.23337 12.6632 3.20039 12.038 2.45812 11.1291C1.71585 10.2202 1.3097 9.08317 1.30816 7.90968V7.85424C2.00114 8.22845 2.77728 8.46407 3.60886 8.49179C2.91283 8.0249 2.34258 7.39369 1.94855 6.65398C1.55452 5.91427 1.34885 5.08885 1.34974 4.25074C1.34974 3.32214 1.59921 2.44899 2.04272 1.70057C4.55131 4.77741 8.29341 6.80091 12.5206 7.00881C12.4374 6.6346 12.382 6.24653 12.382 5.8446C12.3857 4.49798 12.9232 3.20777 13.8767 2.25687C14.8302 1.30596 16.1219 0.771968 17.4685 0.771973C18.9376 0.771973 20.2543 1.3818 21.1829 2.37969C22.3332 2.14408 23.4281 1.72829 24.4122 1.14618C24.0241 2.32425 23.2202 3.32214 22.1669 3.94583C23.1767 3.83545 24.1633 3.56894 25.0913 3.15583Z" fill="white"/>
</svg>
